<svg xmlns="http://www.w3.org/2000/svg" viewBox="0 0 1400 700"><defs><linearGradient id="sky" x2="0" y2="1"><stop stop-color="#8bd3e6"/><stop offset="1" stop-color="#d9f0dc"/></linearGradient><linearGradient id="river" x2="0" y2="1"><stop stop-color="#167b98"/><stop offset="1" stop-color="#063d5a"/></linearGradient></defs><rect width="1400" height="700" fill="url(#sky)"/><path d="M0 250 230 80l170 130 170-175 190 170 190-160 170 165 280-180v670H0Z" fill="#a74e3c"/><path d="M0 330 220 170l190 120 180-185 200 195 190-180 180 155 240-155v580H0Z" fill="#703c3c"/><path d="M0 465c210-100 395-80 570 5 160 78 292 62 438-10 150-74 260-72 392-5v245H0Z" fill="url(#river)"/><path d="M0 560c205-70 385-53 570 22 164 66 305 50 438-13 163-77 270-56 392-2" fill="none" stroke="#bcebf0" stroke-width="18" opacity=".8"/><path d="m590 490 115-20 125 34-100 57-130-19Z" fill="#e56b3f" stroke="#12343b" stroke-width="7"/><circle cx="648" cy="477" r="15" fill="#f2c14e"/><circle cx="710" cy="480" r="15" fill="#f2c14e"/><circle cx="775" cy="493" r="15" fill="#f2c14e"/><path d="M710 463 744 375M744 375l82 40" stroke="#12343b" stroke-width="9"/><path d="M0 650c180-55 340-40 510 24M880 661c170-52 315-43 520 10" stroke="#fff" stroke-width="8" opacity=".55" fill="none"/></svg>
